# xmcd CD database file
#
# Track frame offsets:
#	150
#	11354
#	27796
#	41990
#	56485
#	70814
#	82052
#	94487
#	106758
#	121951
#	132587
#	149136
#	164313
#	176858
#	188951
#	201476
#	217938
#
# Disc length: 3180 seconds
#
# Revision: 0
# Processed by: cddbd v1.4PL0 Copyright (c) Steve Scherf et al.
# Submitted via: CDex 1.50Beta6
#
DISCID=030c6a11
DTITLE=Leon Rausch and Tommy Allsup - A Tribute to Bob Wills 2
DYEAR=1997
DGENRE=Country
TTITLE0=Blue Bonnet Lane
TTITLE1=The Waltz You Saved For Me
TTITLE2=My Life's Been A Pleasure
TTITLE3=Across The Alley From The Alamo
TTITLE4=My Confession
TTITLE5=Spanish Fandango
TTITLE6=Ten Years
TTITLE7=That's What I Like About The South
TTITLE8=When You Leave Amarillo, Turn Out the Lights
TTITLE9=Bubbles In My Beer
TTITLE10=Brain Cloudy Blues
TTITLE11=Spanish Two Step
TTITLE12=Still Water Runs The Deepest
TTITLE13=Miss Molly
TTITLE14=Huneysuckle Time In The Valley
TTITLE15=The Warm Red Wine
TTITLE16=Four Or Five Times
EXTD=YEAR: 1997
EXTT0=
EXTT1=
EXTT2=
EXTT3=
EXTT4=
EXTT5=
EXTT6=
EXTT7=
EXTT8=
EXTT9=
EXTT10=
EXTT11=
EXTT12=
EXTT13=
EXTT14=
EXTT15=
EXTT16=
PLAYORDER=
